# Blender 3.5.1
# www.blender.org
mtllib spear.mtl
o Cube
v 0.108017 3.301361 -0.108017
v 0.108017 -3.301361 -0.108017
v 0.108017 3.301361 0.108017
v 0.108017 -3.301361 0.108017
v -0.108017 3.301361 -0.108017
v -0.108017 -3.301361 -0.108017
v -0.108017 3.301361 0.108017
v -0.108017 -3.301361 0.108017
v 0.174661 3.705900 0.174661
v -0.174661 3.705900 0.174661
v 0.174661 3.705900 -0.174661
v -0.174661 3.705900 -0.174661
v 0.005822 4.815311 0.005822
v -0.005822 4.815311 0.005822
v 0.005822 4.815311 -0.005822
v -0.005822 4.815311 -0.005822
vn -0.0000 -0.1625 0.9867
vn -0.0000 -0.0000 1.0000
vn -1.0000 -0.0000 -0.0000
vn -0.0000 -1.0000 -0.0000
vn 1.0000 -0.0000 -0.0000
vn -0.0000 -0.0000 -1.0000
vn -0.0000 0.1505 -0.9886
vn -0.9867 -0.1625 -0.0000
vn 0.9867 -0.1625 -0.0000
vn -0.0000 -0.1625 -0.9867
vn -0.0000 1.0000 -0.0000
vn 0.9886 0.1505 -0.0000
vn -0.9886 0.1505 -0.0000
vn -0.0000 0.1505 0.9886
vt 0.505005 0.652955
vt 0.923558 0.615750
vt 0.505005 0.347045
vt 0.494995 0.652955
vt 0.913548 0.615750
vt 0.494995 0.347045
vt 0.505005 0.652955
vt 0.923558 0.615750
vt 0.505005 0.347045
vt 0.494995 0.652955
vt 0.913548 0.615750
vt 0.494995 0.347045
vt 0.910461 0.634493
vt 0.910461 0.634493
vt 0.926645 0.634493
vt 0.926645 0.634493
vt 0.918283 0.685893
vt 0.918283 0.685893
vt 0.918823 0.685893
vt 0.918823 0.685893
s 0
usemtl Material
f 7/11/1 3/5/1 9/13/1 10/14/1
f 4/6/2 3/4/2 7/10/2 8/12/2
f 8/12/3 7/10/3 5/7/3 6/9/3
f 6/9/4 2/3/4 4/6/4 8/12/4
f 2/3/5 1/1/5 3/4/5 4/6/5
f 6/9/6 5/7/6 1/1/6 2/3/6
f 11/15/7 12/16/7 16/20/7 15/19/7
f 5/8/8 7/11/8 10/14/8 12/16/8
f 3/5/9 1/2/9 11/15/9 9/13/9
f 1/2/10 5/8/10 12/16/10 11/15/10
f 15/19/11 16/20/11 14/18/11 13/17/11
f 9/13/12 11/15/12 15/19/12 13/17/12
f 12/16/13 10/14/13 14/18/13 16/20/13
f 10/14/14 9/13/14 13/17/14 14/18/14
